# Blender 4.2.1 LTS
# www.blender.org
mtllib post.mtl
o Plane
v -2.513646 -17.932755 -0.000001
v 2.513646 -17.932755 -0.000001
v -2.513646 17.932755 0.000001
v 2.513646 17.932755 0.000001
v -4.586591 19.407364 0.759358
v 4.586591 19.407364 0.759358
v -4.212758 -19.266926 0.759356
v 4.212758 -19.266926 0.759356
v -2.513646 17.932755 -3.630348
v -2.513646 -17.932755 -3.630350
v 2.513646 -17.932755 -3.630350
v 2.513646 17.932755 -3.630348
v 4.586591 19.407364 -4.389705
v -4.586591 19.407364 -4.389705
v -4.212758 -19.266926 -4.389707
v 4.212758 -19.266926 -4.389707
vn -0.0000 -0.0000 -1.0000
vn -0.0000 0.4578 -0.8890
vn -0.0000 -0.4947 -0.8691
vn -0.0000 -0.0000 1.0000
vn -0.0000 0.4578 0.8890
vn -0.0000 -0.4947 0.8691
vn -0.0000 -1.0000 -0.0000
vn -1.0000 -0.0000 -0.0000
vn 1.0000 -0.0000 -0.0000
vn 0.6176 -0.7865 -0.0000
vn -0.0000 1.0000 -0.0000
vn 0.5797 0.8149 -0.0000
vn -0.6176 -0.7865 -0.0000
vn -0.5797 0.8149 -0.0000
vt 1.000000 0.000000
vt 0.000000 0.000000
vt 0.000000 1.000000
vt 1.000000 1.000000
s 0
f 2/1/1 1/2/1 3/3/1
f 4/4/2 3/3/2 5/3/2
f 1/2/3 2/1/3 8/1/3
f 2/1/1 3/3/1 4/4/1
f 4/4/2 5/3/2 6/4/2
f 1/2/3 8/1/3 7/2/3
f 11/1/4 9/3/4 10/2/4
f 12/4/5 14/3/5 9/3/5
f 10/2/6 16/1/6 11/1/6
f 11/1/4 12/4/4 9/3/4
f 12/4/5 13/4/5 14/3/5
f 10/2/6 15/2/6 16/1/6
f 5/3/7 13/4/7 6/4/7
f 4/4/8 11/1/8 2/1/8
f 1/2/9 9/3/9 3/3/9
f 7/2/10 10/2/10 1/2/10
f 8/1/11 15/2/11 7/2/11
f 3/3/12 14/3/12 5/3/12
f 8/1/13 11/1/13 16/1/13
f 6/4/14 12/4/14 4/4/14
f 5/3/7 14/3/7 13/4/7
f 4/4/8 12/4/8 11/1/8
f 1/2/9 10/2/9 9/3/9
f 7/2/10 15/2/10 10/2/10
f 8/1/11 16/1/11 15/2/11
f 3/3/12 9/3/12 14/3/12
f 8/1/13 2/1/13 11/1/13
f 6/4/14 13/4/14 12/4/14
