# Blender 4.2.1 LTS
# www.blender.org
mtllib trophy.mtl
o Circle
v 0.000000 0.000000 -1.888080
v -1.335074 0.000000 -1.335074
v -1.888080 0.000000 0.000000
v -1.335074 0.000000 1.335074
v 0.000000 0.000000 1.888080
v 1.335074 0.000000 1.335074
v 1.888080 0.000000 0.000000
v 1.335074 0.000000 -1.335074
v -0.567156 1.551405 -0.567156
v -0.000000 1.551405 -0.802080
v -0.802080 1.551405 -0.000000
v -0.567156 1.551405 0.567156
v -0.000000 1.551405 0.802080
v 0.567156 1.551405 0.567156
v 0.802080 1.551405 -0.000000
v 0.567156 1.551405 -0.567156
v -1.335074 1.060547 -1.335074
v 0.000000 1.060547 -1.888080
v -1.888080 1.060547 0.000000
v -1.335074 1.060547 1.335074
v 0.000000 1.060547 1.888080
v 1.335074 1.060547 1.335074
v 1.888080 1.060547 0.000000
v 1.335074 1.060547 -1.335074
v -0.395791 7.251228 -0.395791
v 0.000000 7.251228 -0.559733
v -0.559733 7.251228 -0.000000
v -0.395791 7.251228 0.395791
v 0.000000 7.251228 0.559733
v 0.395791 7.251228 0.395791
v 0.559733 7.251228 -0.000000
v 0.395791 7.251228 -0.395791
v -1.978538 8.168365 -1.978538
v 0.000001 8.168365 -2.798076
v -2.798075 8.168365 -0.000000
v -1.978538 8.168365 1.978538
v 0.000001 8.168365 2.798076
v 1.978539 8.168365 1.978538
v 2.798076 8.168365 -0.000000
v 1.978539 8.168365 -1.978538
v -1.196367 13.812291 -1.196368
v 0.000000 13.812291 -1.691919
v -1.691919 13.812291 -0.000000
v -1.196367 13.812291 1.196368
v 0.000000 13.812291 1.691919
v 1.196368 13.812291 1.196368
v 1.691919 13.812291 -0.000000
v 1.196368 13.812291 -1.196368
v -1.978538 13.812291 -1.978538
v 0.000000 13.812291 -2.798076
v -2.798076 13.812291 -0.000000
v -1.978538 13.812291 1.978538
v 0.000000 13.812291 2.798076
v 1.978539 13.812291 1.978538
v 2.798076 13.812291 -0.000000
v 1.978539 13.812291 -1.978538
v -1.196366 10.840896 -1.196368
v 0.000001 10.840896 -1.691919
v -1.691918 10.840896 -0.000000
v -1.196366 10.840896 1.196368
v 0.000001 10.840896 1.691919
v 1.196369 10.840896 1.196368
v 1.691920 10.840896 -0.000000
v 1.196369 10.840896 -1.196368
v 2.438017 8.329781 0.000001
v 3.354848 8.329781 0.000001
v 2.767910 9.357191 0.000001
v 3.547539 8.874741 0.000001
v 3.977998 10.342835 0.000001
v 4.819736 9.979439 0.000001
v 4.578084 11.493484 0.000002
v 5.493452 11.441718 0.000001
v 2.380085 12.724502 0.000002
v 2.843018 13.515875 0.000002
v 3.790838 12.398021 0.000002
v 4.195608 13.190586 0.000002
v -2.438017 8.329781 0.000001
v -3.354848 8.329781 0.000001
v -2.767910 9.357191 0.000001
v -3.547539 8.874741 0.000001
v -3.977998 10.342835 0.000001
v -4.819736 9.979439 0.000001
v -4.578084 11.493484 0.000002
v -5.493452 11.441718 0.000001
v -2.380085 12.724502 0.000002
v -2.843018 13.515875 0.000002
v -3.790838 12.398021 0.000002
v -4.195608 13.190586 0.000002
vn -0.0000 -1.0000 -0.0000
vn 0.3824 0.0393 0.9232
vn 0.9239 -0.0000 -0.3827
vn 0.3827 -0.0000 0.9239
vn -0.9239 -0.0000 0.3827
vn -0.3827 -0.0000 -0.9239
vn 0.3827 -0.0000 -0.9239
vn 0.9239 -0.0000 0.3827
vn -0.3827 -0.0000 0.9239
vn -0.9239 -0.0000 -0.3827
vn -0.1682 0.8983 -0.4060
vn -0.4060 0.8983 -0.1682
vn -0.4060 0.8983 0.1682
vn -0.1682 0.8983 0.4060
vn 0.1682 0.8983 0.4060
vn 0.4060 0.8983 0.1682
vn 0.4060 0.8983 -0.1682
vn 0.1682 0.8983 -0.4060
vn 0.3746 -0.9141 -0.1551
vn -0.9232 0.0393 0.3824
vn -0.3824 0.0393 -0.9232
vn 0.3824 0.0393 -0.9232
vn 0.9232 0.0393 0.3824
vn -0.3824 0.0393 0.9232
vn -0.9232 0.0393 -0.3824
vn 0.9232 0.0393 -0.3824
vn 0.1551 -0.9141 0.3746
vn -0.3746 -0.9141 0.1551
vn -0.1551 -0.9141 -0.3746
vn 0.1551 -0.9141 -0.3746
vn 0.3746 -0.9141 0.1551
vn -0.1551 -0.9141 0.3746
vn -0.3746 -0.9141 -0.1551
vn -0.0000 1.0000 -0.0000
vn -0.0000 -0.0000 1.0000
vn -0.0000 -0.0000 -1.0000
vt 0.000000 0.000000
vt 1.000000 0.000000
vt 0.000000 1.000000
vt 1.000000 1.000000
s 0
f 7/1/1 5/1/1 3/1/1
f 14/1/2 29/1/2 13/1/2
f 8/1/3 23/1/3 7/1/3
f 6/1/4 21/1/4 5/1/4
f 4/1/5 19/1/5 3/1/5
f 2/1/6 18/1/6 1/1/6
f 1/1/7 24/1/7 8/1/7
f 7/1/8 22/1/8 6/1/8
f 5/1/9 20/1/9 4/1/9
f 3/1/10 17/1/10 2/1/10
f 10/1/11 17/1/11 9/1/11
f 9/1/12 19/1/12 11/1/12
f 11/1/13 20/1/13 12/1/13
f 12/1/14 21/1/14 13/1/14
f 13/1/15 22/1/15 14/1/15
f 14/1/16 23/1/16 15/1/16
f 15/1/17 24/1/17 16/1/17
f 16/1/18 18/1/18 10/1/18
f 32/1/19 39/1/19 31/1/19
f 12/1/20 27/1/20 11/1/20
f 9/1/21 26/1/21 10/1/21
f 10/1/22 32/1/22 16/1/22
f 15/1/23 30/1/23 14/1/23
f 13/1/24 28/1/24 12/1/24
f 11/1/25 25/1/25 9/1/25
f 16/1/26 31/1/26 15/1/26
f 39/1/8 54/1/8 38/1/8
f 30/1/27 37/1/27 29/1/27
f 28/1/28 35/1/28 27/1/28
f 26/1/29 33/1/29 34/1/29
f 26/1/30 40/1/30 32/1/30
f 30/1/31 39/1/31 38/1/31
f 29/1/32 36/1/32 28/1/32
f 27/1/33 33/1/33 25/1/33
f 47/1/5 64/1/5 63/1/5
f 37/1/9 52/1/9 36/1/9
f 35/1/10 49/1/10 33/1/10
f 39/1/3 56/1/3 55/1/3
f 37/1/4 54/1/4 53/1/4
f 36/1/5 51/1/5 35/1/5
f 33/1/6 50/1/6 34/1/6
f 34/1/7 56/1/7 40/1/7
f 42/1/34 49/1/34 41/1/34
f 43/1/34 49/1/34 51/1/34
f 43/1/34 52/1/34 44/1/34
f 44/1/34 53/1/34 45/1/34
f 45/1/34 54/1/34 46/1/34
f 46/1/34 55/1/34 47/1/34
f 47/1/34 56/1/34 48/1/34
f 48/1/34 50/1/34 42/1/34
f 63/1/34 64/1/34 58/1/34
f 46/1/6 61/1/6 45/1/6
f 44/1/3 59/1/3 43/1/3
f 42/1/4 57/1/4 58/1/4
f 42/1/9 64/1/9 48/1/9
f 47/1/10 62/1/10 46/1/10
f 45/1/7 60/1/7 44/1/7
f 43/1/8 57/1/8 41/1/8
f 66/2/35 67/3/35 65/1/35
f 68/4/35 69/3/35 67/3/35
f 70/4/35 71/3/35 69/3/35
f 75/3/35 74/4/35 73/3/35
f 71/3/35 76/4/35 75/3/35
f 78/2/36 79/3/36 77/1/36
f 80/4/36 81/3/36 79/3/36
f 82/4/36 83/3/36 81/3/36
f 87/3/36 86/4/36 85/3/36
f 83/3/36 88/4/36 87/3/36
f 3/1/1 2/1/1 1/1/1
f 1/1/1 8/1/1 7/1/1
f 7/1/1 6/1/1 5/1/1
f 5/1/1 4/1/1 3/1/1
f 3/1/1 1/1/1 7/1/1
f 14/1/2 30/1/2 29/1/2
f 8/1/3 24/1/3 23/1/3
f 6/1/4 22/1/4 21/1/4
f 4/1/5 20/1/5 19/1/5
f 2/1/6 17/1/6 18/1/6
f 1/1/7 18/1/7 24/1/7
f 7/1/8 23/1/8 22/1/8
f 5/1/9 21/1/9 20/1/9
f 3/1/10 19/1/10 17/1/10
f 10/1/11 18/1/11 17/1/11
f 9/1/12 17/1/12 19/1/12
f 11/1/13 19/1/13 20/1/13
f 12/1/14 20/1/14 21/1/14
f 13/1/15 21/1/15 22/1/15
f 14/1/16 22/1/16 23/1/16
f 15/1/17 23/1/17 24/1/17
f 16/1/18 24/1/18 18/1/18
f 32/1/19 40/1/19 39/1/19
f 12/1/20 28/1/20 27/1/20
f 9/1/21 25/1/21 26/1/21
f 10/1/22 26/1/22 32/1/22
f 15/1/23 31/1/23 30/1/23
f 13/1/24 29/1/24 28/1/24
f 11/1/25 27/1/25 25/1/25
f 16/1/26 32/1/26 31/1/26
f 39/1/8 55/1/8 54/1/8
f 30/1/27 38/1/27 37/1/27
f 28/1/28 36/1/28 35/1/28
f 26/1/29 25/1/29 33/1/29
f 26/1/30 34/1/30 40/1/30
f 30/1/31 31/1/31 39/1/31
f 29/1/32 37/1/32 36/1/32
f 27/1/33 35/1/33 33/1/33
f 47/1/5 48/1/5 64/1/5
f 37/1/9 53/1/9 52/1/9
f 35/1/10 51/1/10 49/1/10
f 39/1/3 40/1/3 56/1/3
f 37/1/4 38/1/4 54/1/4
f 36/1/5 52/1/5 51/1/5
f 33/1/6 49/1/6 50/1/6
f 34/1/7 50/1/7 56/1/7
f 42/1/34 50/1/34 49/1/34
f 43/1/34 41/1/34 49/1/34
f 43/1/34 51/1/34 52/1/34
f 44/1/34 52/1/34 53/1/34
f 45/1/34 53/1/34 54/1/34
f 46/1/34 54/1/34 55/1/34
f 47/1/34 55/1/34 56/1/34
f 48/1/34 56/1/34 50/1/34
f 58/1/34 57/1/34 59/1/34
f 59/1/34 60/1/34 58/1/34
f 60/1/34 61/1/34 58/1/34
f 61/1/34 62/1/34 58/1/34
f 62/1/34 63/1/34 58/1/34
f 46/1/6 62/1/6 61/1/6
f 44/1/3 60/1/3 59/1/3
f 42/1/4 41/1/4 57/1/4
f 42/1/9 58/1/9 64/1/9
f 47/1/10 63/1/10 62/1/10
f 45/1/7 61/1/7 60/1/7
f 43/1/8 59/1/8 57/1/8
f 66/2/35 68/4/35 67/3/35
f 68/4/35 70/4/35 69/3/35
f 70/4/35 72/4/35 71/3/35
f 75/3/35 76/4/35 74/4/35
f 71/3/35 72/4/35 76/4/35
f 78/2/36 80/4/36 79/3/36
f 80/4/36 82/4/36 81/3/36
f 82/4/36 84/4/36 83/3/36
f 87/3/36 88/4/36 86/4/36
f 83/3/36 84/4/36 88/4/36
